<svg xmlns="http://www.w3.org/2000/svg" width="56" height="56" viewBox="0 0 56 56" fill="none">
  <g clip-path="url(#clip0_1_165)">
    <path d="M52.0272 5.81574C45.7092 3.17656 39.3912 7.4585 33.073 3.48217V2.5912C33.073 1.91086 32.5214 1.35938 31.8412 1.35938C31.161 1.35938 30.6094 1.91086 30.6094 2.5912V20.9869L33.073 22.3068V12.8926C39.3155 14.1336 45.5579 7.31265 51.8003 7.07097C52.1065 7.05914 52.3635 6.83606 52.4179 6.53451C52.4726 6.23283 52.31 5.93387 52.0272 5.81574Z" fill="#00AB55"/>
    <path d="M14.8982 9.21822C17.4437 9.21822 19.5073 7.15465 19.5073 4.60911C19.5073 2.06357 17.4437 0 14.8982 0C12.3526 0 10.2891 2.06357 10.2891 4.60911C10.2891 7.15465 12.3526 9.21822 14.8982 9.21822Z" fill="#00AB55"/>
    <path d="M33.073 47.232V30.9613C32.2699 31.193 31.433 31.2004 30.6093 30.962V47.3027C28.768 47.7878 27.7892 49.3716 25.244 50.5872C25.2672 50.4456 25.2798 50.3005 25.2798 50.1523V38.9017C25.2798 38.4276 25.1536 37.962 24.9137 37.5529L20.7643 30.4689C20.7643 29.9141 20.7643 18.9421 20.7643 15.896C20.7643 15.6385 20.973 15.4298 21.2305 15.4298C21.4879 15.4298 21.6966 15.6385 21.6966 15.896C21.6966 15.9132 21.6961 15.9309 21.6952 15.949C21.7207 20.0391 21.7105 18.3899 21.736 22.4809C21.7411 23.2958 22.1914 24.0425 22.9097 24.4273L30.7908 28.6495C31.8734 29.2296 33.2213 28.822 33.8012 27.7394C34.3813 26.6567 33.9737 25.3089 32.891 24.7289L26.1752 21.131C26.1676 19.9118 26.1599 18.6616 26.1427 15.9239C26.1282 13.0365 23.7673 10.6874 20.8798 10.6874H18.6478L15.838 18.0887L16.5053 14.9452C16.5515 14.7277 16.518 14.5007 16.4108 14.3058L15.5067 12.6613L16.309 11.1719C16.3646 11.0707 16.3628 10.9475 16.3039 10.8479C16.245 10.7484 16.1381 10.6874 16.0224 10.6874H13.8183C13.7028 10.6874 13.5958 10.7484 13.5369 10.8479C13.478 10.9475 13.4761 11.0707 13.5318 11.1719L14.3357 12.6644L13.4298 14.3118C13.3246 14.503 13.2904 14.7252 13.3329 14.9393L13.911 18.0887L11.1492 10.6876H8.91729C6.03003 10.6876 3.66912 13.0366 3.65446 15.924L3.57229 32.2623C3.56614 33.4906 4.55677 34.4912 5.78502 34.4975C5.78884 34.4975 5.79265 34.4975 5.79647 34.4975C7.01943 34.4975 8.014 33.5092 8.02016 32.2847L8.10232 15.9465C8.10355 15.7032 8.30151 15.5068 8.54467 15.5074C8.78783 15.5081 8.98467 15.7054 8.98467 15.9487L8.98566 53.3314C8.98566 54.8053 10.1805 56.0002 11.6544 56.0002C13.1283 56.0002 14.3231 54.8054 14.3231 53.3314V32.0001H15.4754L19.9424 39.6259V50.1524C19.9424 50.9116 20.2599 51.5963 20.7688 52.0822C18.6222 52.9227 17.5408 54.0449 17.0101 54.8474C16.8776 55.048 16.8659 55.3052 16.9798 55.5169C17.0938 55.7287 17.3148 55.86 17.5552 55.86H46.1516C46.4193 55.86 46.6598 55.6966 46.7585 55.4478C46.8572 55.199 46.7941 54.915 46.5991 54.7316C44.2747 52.5441 38.7299 47.885 33.073 47.232Z" fill="#00AB55"/>
  </g>
  <defs>
    <clipPath id="clip0_1_165">
      <rect width="56" height="56" fill="white"/>
    </clipPath>
  </defs>
</svg>