<svg xmlns="http://www.w3.org/2000/svg" width="56" height="56" viewBox="0 0 56 56" fill="none">
  <path d="M28.2418 0.00127462C29.1588 0.00127462 30.0618 0.0607746 30.9018 0.200775C31.7291 0.309179 32.5454 0.489529 33.3413 0.739775C34.1393 0.981275 34.9198 1.28227 35.7003 1.66027C36.4598 2.02077 37.2403 2.46177 38.0208 2.94127C39.3403 3.78127 40.6388 4.46027 41.9618 5.00277C44.5663 6.04519 47.3204 6.66548 50.1203 6.84027C51.5413 6.94177 53.0008 7.00127 54.5198 7.00127V21.0013C54.5198 23.6613 54.1803 26.1813 53.5013 28.5823C52.8491 30.949 51.9223 33.2313 50.7398 35.3828C49.5623 37.5312 48.1691 39.5541 46.5818 41.4203C44.9701 43.3288 43.2251 45.1207 41.3598 46.7823C39.4699 48.4488 37.4793 49.9975 35.3993 51.4198C33.3203 52.8618 31.2203 54.2023 29.1203 55.4203L28.2803 55.9208L27.4403 55.4203C25.2815 54.1704 23.1729 52.8359 21.1193 51.4198C19.0277 50.0135 17.0361 48.464 15.1588 46.7823C13.2947 45.1206 11.5508 43.3288 9.94032 41.4203C8.35725 39.5462 6.95783 37.5244 5.76132 35.3828C4.59908 33.2218 3.67323 30.9418 2.99982 28.5823C2.31652 26.1139 1.97963 23.5624 1.99882 21.0013V7.00127C3.52132 7.00127 4.98082 6.94177 6.40182 6.84027C7.80064 6.74312 9.19039 6.54307 10.5598 6.24177C11.9003 5.94077 13.2408 5.54177 14.5603 5.00277C15.9295 4.45018 17.2423 3.76685 18.4803 2.96227C20.0203 1.96127 21.5813 1.22277 23.1213 0.736275C24.7798 0.227835 26.5072 -0.0201157 28.2418 0.00127462ZM50.9988 10.4418C48.3494 10.3132 45.7247 9.87028 43.1798 9.12227C40.6484 8.36717 38.2373 7.25587 36.0188 5.82177C34.8681 5.06646 33.6184 4.47401 32.3053 4.06127C30.9936 3.66485 29.6296 3.46897 28.2593 3.48027C26.8789 3.47135 25.5048 3.66714 24.1818 4.06127C22.8668 4.4606 21.6187 5.05397 20.4788 5.82177C18.2565 7.26369 15.8391 8.37986 13.3003 9.13627C10.8188 9.85727 8.22182 10.2983 5.49882 10.4593V21.0188C5.49882 23.3393 5.79982 25.5583 6.40182 27.6968C7.01511 29.8167 7.86022 31.8625 8.92182 33.7973C9.99615 35.7522 11.2624 37.5952 12.7018 39.2993C14.1613 41.0178 15.7188 42.6173 17.3988 44.1363C19.0788 45.6588 20.8393 47.0588 22.6803 48.3573C24.5388 49.6593 26.4008 50.8388 28.2593 51.9168C30.1623 50.8089 32.0178 49.6214 33.8208 48.3573C35.674 47.0629 37.4438 45.6531 39.1198 44.1363C40.7998 42.6173 42.3608 41.0178 43.8203 39.2993C45.2599 37.5954 46.5262 35.7523 47.6003 33.7973C48.6572 31.865 49.4898 29.8182 50.0818 27.6968C50.7021 25.5254 51.0109 23.277 50.9988 21.0188V10.4418Z" fill="#00AB55"/>
  <path fill-rule="evenodd" clip-rule="evenodd" d="M41.2899 16.4793L39.7499 15.1562L38.3289 15.2788L23.0689 33.2968L17.8714 25.8768L16.4714 25.6388L14.8509 26.7973L14.6094 28.1973L21.2909 37.7383L22.0504 38.1583L23.6499 38.2563L24.4689 37.8993L41.3914 17.8967L41.2899 16.4793Z" fill="#00AB55"/>
</svg>