<svg xmlns="http://www.w3.org/2000/svg" width="56" height="56" viewBox="0 0 56 56" fill="none">
  <path d="M8.94062 12.932H42.1655C43.1887 12.932 44.0182 12.1025 44.0182 11.0793C44.0182 10.0561 43.1887 9.22656 42.1655 9.22656H8.94062C7.91743 9.22656 7.08789 10.0561 7.08789 11.0793C7.08789 12.1025 7.91743 12.932 8.94062 12.932Z" fill="#00AB55"/>
  <path d="M8.94062 20.8383H42.1655C43.1887 20.8383 44.0182 20.0087 44.0182 18.9855C44.0182 17.9624 43.1887 17.1328 42.1655 17.1328H8.94062C7.91743 17.1328 7.08789 17.9624 7.08789 18.9855C7.08789 20.0087 7.91743 20.8383 8.94062 20.8383Z" fill="#00AB55"/>
  <path d="M26.5676 25.0391H8.94062C7.91743 25.0391 7.08789 25.8686 7.08789 26.8918C7.08789 27.915 7.91743 28.7445 8.94062 28.7445H26.5676C27.5907 28.7445 28.4203 27.915 28.4203 26.8918C28.4203 25.8686 27.5907 25.0391 26.5676 25.0391Z" fill="#00AB55"/>
  <path d="M55.8965 53.208L51.0526 43.6174L52.9269 42.8694C53.4192 42.6729 53.8322 42.1047 53.8673 41.5758L54.0269 39.171C54.0536 38.7681 54.2578 38.1396 54.4729 37.7983L55.7569 35.7589C56.0394 35.3106 56.0394 34.6081 55.757 34.1596L54.4729 32.1202C54.2581 31.7789 54.0538 31.1502 54.027 30.7475L53.8675 28.3427C53.8374 27.8899 53.5298 27.4091 53.1334 27.1566V4.8617C53.1334 2.81844 51.4712 1.15625 49.4281 1.15625H3.70532C1.66219 1.15625 0 2.81844 0 4.8617V36.6017C0 38.645 1.66219 40.307 3.70532 40.307H32.8497L32.9338 41.5759C32.969 42.1048 33.3819 42.6729 33.8742 42.8694L35.6339 43.5717L30.7668 53.208C30.6171 53.5047 30.6572 53.6834 30.7173 53.7811C30.7554 53.843 30.8486 53.9467 31.045 53.9467C31.1432 53.9467 31.2563 53.9202 31.3813 53.868L35.3682 52.1988C35.4662 52.1577 35.5829 52.136 35.7055 52.136C35.9983 52.136 36.2968 52.2572 36.4658 52.4444L38.381 54.5678C38.5406 54.7448 38.7383 54.8423 38.9373 54.8423C39.1999 54.8423 39.4355 54.6726 39.5672 54.3885L43.3194 46.2945C43.3276 46.2943 43.3356 46.2943 43.3438 46.2942L47.0961 54.3885C47.2278 54.6727 47.4633 54.8423 47.7262 54.8423C47.925 54.8423 48.1227 54.7448 48.2823 54.5676L50.1974 52.4445C50.3665 52.2572 50.665 52.136 50.9577 52.136C51.0802 52.136 51.1969 52.1577 51.295 52.1988L55.2819 53.868C55.4068 53.9202 55.52 53.9467 55.6182 53.9467C55.8147 53.9467 55.9078 53.8429 55.9458 53.7811C56.0061 53.6834 56.0462 53.5047 55.8965 53.208ZM3.70532 4.8617H49.4279L49.4281 25.1956L47.9797 23.453C47.7153 23.1349 47.2311 22.9213 46.7751 22.9213C46.664 22.9213 46.5578 22.934 46.4591 22.9591L44.1215 23.554C43.7491 23.6487 43.0518 23.6487 42.6793 23.554L40.342 22.9591C40.2433 22.934 40.1371 22.9213 40.026 22.9213C39.5699 22.9213 39.0858 23.1349 38.8214 23.453L37.2803 25.3073C37.0226 25.6176 36.4881 26.0059 36.1135 26.1554L33.8744 27.0492C33.3821 27.2457 32.969 27.8138 32.934 28.3427L32.7744 30.7475C32.7477 31.1504 32.5436 31.7789 32.3285 32.1202L31.0445 34.1596C30.762 34.6079 30.762 35.3106 31.0445 35.7589L31.5751 36.6016H3.70532V4.8617ZM43.4004 42.8367C39.0499 42.8367 35.523 39.3099 35.523 34.9593C35.523 30.6086 39.0499 27.0818 43.4004 27.0818C47.7511 27.0818 51.2781 30.6086 51.2781 34.9593C51.2782 39.3099 47.7511 42.8367 43.4004 42.8367Z" fill="#00AB55"/>
</svg>