<svg xmlns="http://www.w3.org/2000/svg" width="57" height="56" viewBox="0 0 57 56" fill="none">
  <g clip-path="url(#clip0_1_188)">
    <path d="M14.6181 34.8819C11.8225 34.8819 9.56281 37.1438 9.56281 39.9372C9.56281 42.7328 11.8225 44.9947 14.6181 44.9947C17.4116 44.9947 19.6734 42.7328 19.6734 39.9372C19.6734 37.1438 17.4116 34.8819 14.6181 34.8819ZM14.6181 41.8753C13.5572 41.8753 12.6822 41.0003 12.6822 39.9372C12.6822 38.8763 13.5572 38.0013 14.6181 38.0013C15.6791 38.0013 16.5541 38.8763 16.5541 39.9372C16.5541 41.0003 15.6791 41.8753 14.6181 41.8753ZM46.4462 34.6675C43.6528 34.6675 41.3909 36.9272 41.3909 39.7228C41.3909 42.5163 43.6528 44.7781 46.4462 44.7781C49.2419 44.7781 51.5037 42.5163 51.5037 39.7228C51.5037 36.9272 49.2419 34.6675 46.4462 34.6675ZM46.4462 41.6588C45.3853 41.6588 44.5103 40.7838 44.5103 39.7228C44.5103 38.6619 45.3853 37.7869 46.4462 37.7869C47.5094 37.7869 48.3844 38.6619 48.3844 39.7228C48.3844 40.7838 47.5094 41.6588 46.4462 41.6588ZM0.9375 10.9375V37.065C0.9375 38.045 1.7075 38.9375 2.6875 38.9375H7.5C7.70125 38.9375 7.90031 38.6838 7.9375 38.5C8.48875 35.3369 11.2909 33.1538 14.6181 33.1538C17.9453 33.1538 20.7037 35.3456 21.255 38.5088C21.2922 38.7122 21.5175 38.9375 21.7188 38.9375H28.9375V10.9375H0.9375ZM14.6684 30.0322C10.8862 30.0322 7.80844 26.9544 7.80844 23.1722C7.80844 19.6569 10.4641 16.7519 13.8744 16.3581V15.4897H12.925V13.8447H16.53V15.4897H15.5172V16.3625C16.2806 16.4588 17.0047 16.6775 17.6697 17.0013L18.2472 16.0869L19.6363 16.9619L19.05 17.8959C20.5638 19.1538 21.5306 21.0525 21.5306 23.1722C21.5306 26.9544 18.4528 30.0322 14.6684 30.0322ZM14.6684 17.9528C11.7919 17.9528 9.45125 20.2934 9.45125 23.1722C9.45125 26.0488 11.7919 28.3894 14.6684 28.3894C17.5472 28.3894 19.8878 26.0488 19.8878 23.1722C19.8878 20.2934 17.5472 17.9528 14.6684 17.9528ZM14.6969 23.1394V18.9044C17.0309 18.9153 18.9078 20.8075 18.9319 23.1394H14.6969ZM55.625 35.2188H54.5312V30.4063C54.5312 28.7875 53.3237 27.5625 51.6875 27.5625H46.4375C46.3281 27.5625 46.1969 27.5034 46.1225 27.4313L37.9412 19.4666C37.5737 19.0991 37.1275 18.83 36.5938 18.8125H30.6875V38.9375H39.4375C39.6387 38.9375 39.8378 38.6838 39.875 38.5C40.4263 35.3369 43.1191 32.9372 46.4462 32.9372C49.7756 32.9372 52.5319 35.3456 53.0831 38.5088C53.1203 38.7122 53.455 38.9375 53.6562 38.9375H54.0938C55.1416 38.9375 56.0625 37.9947 56.0625 36.9644V35.6038C56.0625 35.4025 55.8459 35.2188 55.625 35.2188ZM42.2812 27.5625H33.3125C33.0916 27.5625 32.875 27.3459 32.875 27.125L32.8663 21.4703C32.8663 21.2494 33.0916 21 33.3125 21H36.1562C36.2656 21 36.4888 21.1203 36.5806 21.1947L42.5 26.9063C42.7209 27.1819 42.6312 27.5625 42.2812 27.5625Z" fill="#00AB55"/>
  </g>
  <defs>
    <clipPath id="clip0_1_188">
      <rect width="56" height="56" fill="white" transform="translate(0.5)"/>
    </clipPath>
  </defs>
</svg>